<svg version="1.0" xmlns="http://www.w3.org/2000/svg"
 width="1920.000000pt" height="1920.000000pt" viewBox="0 0 1920.000000 1920.000000"
 preserveAspectRatio="xMidYMid meet">

<g transform="translate(0.000000,1920.000000) scale(0.100000,-0.100000)"
fill="currentColor" stroke="none">
<path d="M11971 17889 c-339 -36 -696 -187 -965 -409 -39 -32 -1271 -1257
-2738 -2722 -1869 -1867 -2684 -2687 -2725 -2743 -198 -271 -316 -563 -357
-883 -64 -498 80 -997 402 -1392 33 -41 366 -380 739 -752 l678 -677 3282
3277 c3521 3515 3355 3345 3487 3579 393 697 284 1577 -267 2158 -395 418
-956 624 -1536 564z"/>
<path d="M8933 7602 c-3500 -3494 -3352 -3343 -3482 -3570 -224 -392 -294
-864 -195 -1311 154 -689 696 -1231 1385 -1385 272 -60 536 -60 808 0 270 60
535 187 749 360 81 64 5322 5293 5408 5395 498 586 585 1421 217 2077 -127
225 -140 240 -897 999 l-711 712 -3282 -3277z"/>
</g>
</svg>
